<svg width="93" height="92" viewBox="0 0 93 92" fill="none" xmlns="http://www.w3.org/2000/svg">
<path d="M81.4959 29.4115C78.5346 29.4115 76.3891 31.5462 76.3891 34.5002V45.9818C75.6991 45.6512 74.9085 45.4679 74.0424 45.4679H73.7405C72.7666 45.4679 71.8538 45.8452 71.1638 46.5244L59.3979 58.2075C56.5373 61.0501 56.5086 65.1794 56.5086 65.3554V73.8547H56.2965C54.9165 73.8547 53.6659 75.0981 53.6659 76.4565V83.7806H56.4259V76.6146H72.4615V83.7806H75.2215V76.4565C75.2215 75.2131 74.1721 74.0847 72.9394 73.8978V72.7838C72.9394 72.7011 73.0113 70.7964 75.0202 68.8091L83.7242 60.1626C86.5849 57.32 86.6136 54.3659 86.6136 54.2473V34.4958C86.6136 31.5525 84.4717 29.4071 81.5068 29.4071L81.4959 29.4115ZM83.8426 54.2331C83.8426 54.3158 83.7707 56.2205 81.7618 58.2078L73.0578 66.8543C70.1972 69.6969 70.1685 72.651 70.1685 72.7696V73.8549H59.2582V65.3629C59.2582 65.3629 59.3049 62.1789 61.339 60.1664L73.1048 48.4833C73.2701 48.318 73.5002 48.2245 73.7302 48.2245H74.032C75.4407 48.2245 76.3788 49.1625 76.3788 50.5532V50.9306C76.3788 51.1139 76.3069 51.2899 76.1775 51.4193L68.0915 59.4586L70.0322 61.4172L78.1182 53.3779C78.7614 52.7346 79.1388 51.8398 79.1388 50.9305V34.5067C79.1388 33.1159 80.0875 32.178 81.4855 32.178C82.8835 32.178 83.8323 33.1159 83.8323 34.5067V54.2398L83.8426 54.2331ZM36.711 73.8659H36.499V65.3667C36.499 65.1906 36.463 61.0506 33.6096 58.2187L21.8437 46.5356C21.1537 45.8564 20.2445 45.4791 19.267 45.4791H18.9651C18.099 45.4791 17.3084 45.6624 16.6184 45.993V34.5114C16.6184 31.5681 14.4765 29.4227 11.5117 29.4227C8.55036 29.4227 6.40492 31.5574 6.40492 34.5114V54.2629C6.40492 54.3923 6.44086 57.3355 9.29427 60.1782L17.9983 68.8247C20.0036 70.8121 20.0791 72.724 20.0791 72.7815V73.9135C18.8465 74.1076 17.797 75.2289 17.797 76.4722V83.7963H20.557V76.6303H36.5926V83.7963H39.3526V76.4722C39.3526 75.1102 38.102 73.8704 36.722 73.8704L36.711 73.8659ZM22.8282 73.8659V72.7806C22.8282 72.6512 22.7923 69.708 19.9389 66.8652L11.2348 58.2187C9.22951 56.2313 9.15407 54.3195 9.15407 54.262V34.5105C9.15407 33.1197 10.1028 32.1818 11.5008 32.1818C12.8988 32.1818 13.8475 33.1197 13.8475 34.5105V50.9343C13.8475 51.8436 14.2141 52.7384 14.8682 53.3817L22.9542 61.421L24.8948 59.4624L16.8088 51.4231C16.6795 51.2938 16.6076 51.1213 16.6076 50.9344V50.557C16.6076 49.1663 17.5563 48.2283 18.9543 48.2283H19.2562C19.497 48.2283 19.7162 48.3218 19.8815 48.4871L31.6474 60.1702C33.6814 62.1863 33.7282 65.3416 33.7282 65.3667V73.8659H22.8179L22.8282 73.8659ZM62.4167 46.6256H30.5829C28.3296 46.6256 26.3135 45.4577 25.1815 43.5063C24.0494 41.5548 24.0602 39.2297 25.1815 37.2783L41.0984 9.68936C42.2197 7.73795 44.2466 6.57001 46.4998 6.57001C48.7531 6.57001 50.7692 7.73795 51.9012 9.68936L67.8181 37.2608C68.9394 39.2123 68.9502 41.5374 67.8181 43.4888C66.6861 45.4402 64.67 46.6081 62.4167 46.6081V46.6256ZM46.4998 9.33709C45.2492 9.33709 44.1172 9.99116 43.4919 11.0764L27.575 38.6479C26.9496 39.7332 26.9496 41.0305 27.575 42.1159C28.2003 43.2012 29.3215 43.8552 30.5829 43.8552H62.4232C63.6738 43.8552 64.8058 43.2011 65.4311 42.1159C66.0564 41.0305 66.0564 39.7332 65.4311 38.6479L49.5068 11.0691C48.8815 9.98376 47.7603 9.32973 46.4989 9.32973L46.4998 9.33709ZM46.4998 40.653H46.489C44.419 40.6422 42.7444 38.9604 42.7551 36.9011C42.7551 35.8985 43.1504 34.9605 43.8691 34.2525C44.5771 33.5517 45.5151 33.1672 46.5106 33.1672H46.5285C48.5878 33.1672 50.2732 34.8491 50.2732 36.9119C50.2732 37.9254 49.8779 38.8633 49.1592 39.5712C48.4512 40.272 47.5024 40.6566 46.5106 40.6566L46.4998 40.653ZM46.4998 35.9236C46.2339 35.9236 45.9859 36.0243 45.7918 36.2075C45.6086 36.3908 45.4972 36.6388 45.4972 36.8975C45.4972 37.4402 45.9392 37.8822 46.489 37.8822C46.7549 37.8822 47.0029 37.7816 47.197 37.5875C47.391 37.4042 47.4917 37.1563 47.4917 36.8867C47.4917 36.3549 47.0424 35.9128 46.4998 35.9128V35.9236ZM46.4998 31.9022C44.4298 31.9022 42.7372 30.3282 42.7372 28.3875V19.2522C42.7372 17.3116 44.4191 15.7375 46.4998 15.7375C48.5806 15.7375 50.2624 17.3116 50.2624 19.2522V28.3875C50.2624 30.3282 48.5806 31.9022 46.4998 31.9022ZM46.4998 18.4904C45.9572 18.4904 45.4972 18.839 45.4972 19.2451V28.3805C45.4972 28.7866 45.9572 29.1351 46.4998 29.1351C47.0424 29.1351 47.5024 28.7865 47.5024 28.3805V19.2451C47.5024 18.839 47.0424 18.4904 46.4998 18.4904Z" fill="#FFCB05"/>
</svg>
